<mxfile host="65bd71144e">
    <diagram id="hKQCdUok9aY4Uddecvr5" name="Page-1">
        <mxGraphModel dx="731" dy="626" grid="1" gridSize="10" guides="1" tooltips="1" connect="1" arrows="1" fold="1" page="1" pageScale="1" pageWidth="850" pageHeight="1100" math="0" shadow="0">
            <root>
                <mxCell id="0"/>
                <mxCell id="1" parent="0"/>
                <mxCell id="2" value="BlockChain" style="whiteSpace=wrap;html=1;" parent="1" vertex="1">
                    <mxGeometry x="510" y="85" width="120" height="60" as="geometry"/>
                </mxCell>
                <mxCell id="13" style="edgeStyle=none;html=1;" parent="1" source="3" target="12" edge="1">
                    <mxGeometry relative="1" as="geometry"/>
                </mxCell>
                <mxCell id="18" style="edgeStyle=none;html=1;entryX=0;entryY=0.5;entryDx=0;entryDy=0;" parent="1" source="3" target="17" edge="1">
                    <mxGeometry relative="1" as="geometry"/>
                </mxCell>
                <mxCell id="32" value="&lt;span style=&quot;background-color: rgb(42, 37, 47);&quot;&gt;&lt;font style=&quot;&quot;&gt;&lt;font style=&quot;font-size: 8px;&quot;&gt;Request Account Info&lt;br&gt;(Secret Storage)&lt;/font&gt;&lt;br&gt;&lt;/font&gt;&lt;/span&gt;" style="html=1;" parent="1" edge="1">
                    <mxGeometry relative="1" as="geometry">
                        <mxPoint x="410" y="170" as="targetPoint"/>
                        <mxPoint x="90" y="170" as="sourcePoint"/>
                        <Array as="points"/>
                        <mxPoint as="offset"/>
                    </mxGeometry>
                </mxCell>
                <mxCell id="3" value="User Phone&amp;nbsp;" style="whiteSpace=wrap;html=1;" parent="1" vertex="1">
                    <mxGeometry x="20" y="70" width="140" height="85" as="geometry"/>
                </mxCell>
                <mxCell id="30" style="edgeStyle=none;html=1;shape=link;" parent="1" source="4" edge="1">
                    <mxGeometry relative="1" as="geometry">
                        <mxPoint x="410" y="460" as="targetPoint"/>
                    </mxGeometry>
                </mxCell>
                <mxCell id="4" value="Backend&lt;br&gt;" style="whiteSpace=wrap;html=1;" parent="1" vertex="1">
                    <mxGeometry x="350" y="85" width="120" height="60" as="geometry"/>
                </mxCell>
                <mxCell id="11" value="Assuming user is authenticated, grab the user name locally in the phone and fetch&amp;nbsp;" style="text;strokeColor=none;align=center;fillColor=none;html=1;verticalAlign=middle;whiteSpace=wrap;rounded=0;" parent="1" vertex="1">
                    <mxGeometry x="20" y="30" width="460" height="30" as="geometry"/>
                </mxCell>
                <mxCell id="12" value="&lt;font style=&quot;font-size: 8px;&quot;&gt;Secret Storage&lt;/font&gt;" style="whiteSpace=wrap;html=1;" parent="1" vertex="1">
                    <mxGeometry x="119" y="125" width="41" height="30" as="geometry"/>
                </mxCell>
                <mxCell id="17" value="&lt;font style=&quot;font-size: 8px;&quot;&gt;Redux&lt;/font&gt;" style="whiteSpace=wrap;html=1;" parent="1" vertex="1">
                    <mxGeometry x="20" y="127.5" width="40" height="25" as="geometry"/>
                </mxCell>
                <mxCell id="27" style="edgeStyle=none;html=1;entryX=0.5;entryY=1;entryDx=0;entryDy=0;" parent="1" source="20" target="25" edge="1">
                    <mxGeometry relative="1" as="geometry"/>
                </mxCell>
                <mxCell id="20" value="User Phone&amp;nbsp;" style="whiteSpace=wrap;html=1;" parent="1" vertex="1">
                    <mxGeometry x="70" y="740" width="120" height="60" as="geometry"/>
                </mxCell>
                <mxCell id="24" value="" style="whiteSpace=wrap;html=1;" parent="1" vertex="1">
                    <mxGeometry x="30" y="510" width="570" height="10" as="geometry"/>
                </mxCell>
                <mxCell id="25" value="Backend &lt;br&gt;(has brands of giftcards)" style="whiteSpace=wrap;html=1;" parent="1" vertex="1">
                    <mxGeometry x="70" y="570" width="120" height="60" as="geometry"/>
                </mxCell>
                <mxCell id="26" value="Redux" style="whiteSpace=wrap;html=1;" parent="1" vertex="1">
                    <mxGeometry x="380" y="620" width="280" height="180" as="geometry"/>
                </mxCell>
                <mxCell id="28" value="Brands&amp;nbsp;&lt;br&gt;id, brandName" style="whiteSpace=wrap;html=1;" parent="1" vertex="1">
                    <mxGeometry x="380" y="630" width="120" height="60" as="geometry"/>
                </mxCell>
                <mxCell id="31" style="edgeStyle=none;html=1;shape=link;" parent="1" edge="1">
                    <mxGeometry relative="1" as="geometry">
                        <mxPoint x="570" y="460" as="targetPoint"/>
                        <mxPoint x="569.76" y="145" as="sourcePoint"/>
                    </mxGeometry>
                </mxCell>
                <mxCell id="33" style="html=1;" parent="1" edge="1">
                    <mxGeometry relative="1" as="geometry">
                        <mxPoint x="90" y="200" as="targetPoint"/>
                        <mxPoint x="410" y="200" as="sourcePoint"/>
                    </mxGeometry>
                </mxCell>
                <mxCell id="35" value="&lt;font style=&quot;font-size: 8px;&quot;&gt;&lt;span style=&quot;background-color: rgb(42, 37, 47);&quot;&gt;Returns all User Details&lt;br&gt;(&lt;/span&gt;&lt;span style=&quot;background-color: rgb(42, 37, 47);&quot;&gt;ReduxStorage&lt;/span&gt;&lt;/font&gt;&lt;span style=&quot;background-color: rgb(42, 37, 47);&quot;&gt;&lt;font style=&quot;font-size: 8px;&quot;&gt;)&lt;/font&gt;&lt;br&gt;&lt;/span&gt;" style="edgeLabel;html=1;align=center;verticalAlign=middle;resizable=0;points=[];fontSize=10;" parent="33" vertex="1" connectable="0">
                    <mxGeometry x="0.2745" relative="1" as="geometry">
                        <mxPoint x="38" as="offset"/>
                    </mxGeometry>
                </mxCell>
                <mxCell id="36" style="edgeStyle=none;html=1;shape=link;" parent="1" edge="1">
                    <mxGeometry relative="1" as="geometry">
                        <mxPoint x="90" y="470" as="targetPoint"/>
                        <mxPoint x="89.70999999999998" y="155" as="sourcePoint"/>
                    </mxGeometry>
                </mxCell>
                <mxCell id="38" style="html=1;" parent="1" edge="1">
                    <mxGeometry relative="1" as="geometry">
                        <mxPoint x="570" y="230" as="targetPoint"/>
                        <mxPoint x="90" y="230" as="sourcePoint"/>
                    </mxGeometry>
                </mxCell>
                <mxCell id="39" value="&lt;span style=&quot;background-color: rgb(42, 37, 47);&quot;&gt;&lt;span style=&quot;font-size: 8px;&quot;&gt;Requests User Wallet&lt;/span&gt;&lt;br&gt;&lt;/span&gt;" style="edgeLabel;html=1;align=center;verticalAlign=middle;resizable=0;points=[];fontSize=10;" parent="38" vertex="1" connectable="0">
                    <mxGeometry x="0.2745" relative="1" as="geometry">
                        <mxPoint x="-154" as="offset"/>
                    </mxGeometry>
                </mxCell>
                <mxCell id="40" style="html=1;" parent="1" edge="1">
                    <mxGeometry relative="1" as="geometry">
                        <mxPoint x="90" y="250" as="targetPoint"/>
                        <mxPoint x="570" y="250" as="sourcePoint"/>
                    </mxGeometry>
                </mxCell>
                <mxCell id="41" value="&lt;span style=&quot;background-color: rgb(42, 37, 47);&quot;&gt;&lt;span style=&quot;font-size: 8px;&quot;&gt;Responds with User Wallet&lt;/span&gt;&lt;br&gt;&lt;/span&gt;" style="edgeLabel;html=1;align=center;verticalAlign=middle;resizable=0;points=[];fontSize=10;" parent="40" vertex="1" connectable="0">
                    <mxGeometry x="0.2745" relative="1" as="geometry">
                        <mxPoint x="-14" as="offset"/>
                    </mxGeometry>
                </mxCell>
                <mxCell id="42" style="html=1;" parent="1" edge="1">
                    <mxGeometry relative="1" as="geometry">
                        <mxPoint x="570" y="340" as="targetPoint"/>
                        <mxPoint x="90" y="340" as="sourcePoint"/>
                    </mxGeometry>
                </mxCell>
                <mxCell id="43" value="&lt;span style=&quot;background-color: rgb(42, 37, 47);&quot;&gt;&lt;span style=&quot;font-size: 8px;&quot;&gt;Requests User Transactions&lt;/span&gt;&lt;br&gt;&lt;/span&gt;" style="edgeLabel;html=1;align=center;verticalAlign=middle;resizable=0;points=[];fontSize=10;" parent="42" vertex="1" connectable="0">
                    <mxGeometry x="0.2745" relative="1" as="geometry">
                        <mxPoint x="-136" as="offset"/>
                    </mxGeometry>
                </mxCell>
                <mxCell id="46" style="html=1;" parent="1" edge="1">
                    <mxGeometry relative="1" as="geometry">
                        <mxPoint x="90" y="360" as="targetPoint"/>
                        <mxPoint x="570" y="360" as="sourcePoint"/>
                    </mxGeometry>
                </mxCell>
                <mxCell id="47" value="&lt;span style=&quot;background-color: rgb(42, 37, 47);&quot;&gt;&lt;span style=&quot;font-size: 8px;&quot;&gt;Responds with User Wallet&lt;/span&gt;&lt;br&gt;&lt;/span&gt;" style="edgeLabel;html=1;align=center;verticalAlign=middle;resizable=0;points=[];fontSize=10;" parent="46" vertex="1" connectable="0">
                    <mxGeometry x="0.2745" relative="1" as="geometry">
                        <mxPoint x="-6" as="offset"/>
                    </mxGeometry>
                </mxCell>
                <mxCell id="48" value="&lt;span style=&quot;background-color: rgb(42, 37, 47);&quot;&gt;&lt;font style=&quot;&quot;&gt;&lt;font style=&quot;font-size: 8px;&quot;&gt;Request Brands&amp;nbsp;&lt;br&gt;(From MintPubKeys from User Wallet)&lt;/font&gt;&lt;br&gt;&lt;/font&gt;&lt;/span&gt;" style="html=1;" parent="1" edge="1">
                    <mxGeometry relative="1" as="geometry">
                        <mxPoint x="410" y="280" as="targetPoint"/>
                        <mxPoint x="90" y="280" as="sourcePoint"/>
                        <Array as="points"/>
                        <mxPoint as="offset"/>
                    </mxGeometry>
                </mxCell>
                <mxCell id="49" style="html=1;" parent="1" edge="1">
                    <mxGeometry relative="1" as="geometry">
                        <mxPoint x="90" y="310" as="targetPoint"/>
                        <mxPoint x="410" y="310" as="sourcePoint"/>
                    </mxGeometry>
                </mxCell>
                <mxCell id="50" value="&lt;font style=&quot;font-size: 8px;&quot;&gt;&lt;span style=&quot;background-color: rgb(42, 37, 47);&quot;&gt;Returns all Brands Associated &lt;br&gt;with User MintPublicKey&lt;/span&gt;&lt;/font&gt;&lt;span style=&quot;background-color: rgb(42, 37, 47);&quot;&gt;&lt;br&gt;&lt;/span&gt;" style="edgeLabel;html=1;align=center;verticalAlign=middle;resizable=0;points=[];fontSize=10;" parent="49" vertex="1" connectable="0">
                    <mxGeometry x="0.2745" relative="1" as="geometry">
                        <mxPoint x="44" as="offset"/>
                    </mxGeometry>
                </mxCell>
                <mxCell id="51" style="html=1;" edge="1" parent="1">
                    <mxGeometry relative="1" as="geometry">
                        <mxPoint x="570" y="380" as="targetPoint"/>
                        <mxPoint x="90" y="380" as="sourcePoint"/>
                    </mxGeometry>
                </mxCell>
                <mxCell id="52" value="&lt;span style=&quot;background-color: rgb(42, 37, 47);&quot;&gt;&lt;span style=&quot;font-size: 8px;&quot;&gt;Get Publick Key from txnHash&lt;/span&gt;&lt;br&gt;&lt;/span&gt;" style="edgeLabel;html=1;align=center;verticalAlign=middle;resizable=0;points=[];fontSize=10;" vertex="1" connectable="0" parent="51">
                    <mxGeometry x="0.2745" relative="1" as="geometry">
                        <mxPoint x="-136" as="offset"/>
                    </mxGeometry>
                </mxCell>
                <mxCell id="53" style="html=1;" edge="1" parent="1">
                    <mxGeometry relative="1" as="geometry">
                        <mxPoint x="90" y="400" as="targetPoint"/>
                        <mxPoint x="570" y="400" as="sourcePoint"/>
                    </mxGeometry>
                </mxCell>
                <mxCell id="54" value="&lt;span style=&quot;background-color: rgb(42, 37, 47);&quot;&gt;&lt;span style=&quot;font-size: 8px;&quot;&gt;Responds with PK&lt;/span&gt;&lt;br&gt;&lt;/span&gt;" style="edgeLabel;html=1;align=center;verticalAlign=middle;resizable=0;points=[];fontSize=10;" vertex="1" connectable="0" parent="53">
                    <mxGeometry x="0.2745" relative="1" as="geometry">
                        <mxPoint x="-6" as="offset"/>
                    </mxGeometry>
                </mxCell>
                <mxCell id="55" style="html=1;" edge="1" parent="1">
                    <mxGeometry relative="1" as="geometry">
                        <mxPoint x="410" y="420" as="targetPoint"/>
                        <mxPoint x="90" y="420" as="sourcePoint"/>
                    </mxGeometry>
                </mxCell>
                <mxCell id="56" value="&lt;span style=&quot;background-color: rgb(42, 37, 47);&quot;&gt;&lt;span style=&quot;font-size: 8px;&quot;&gt;Find Brands from PK&lt;/span&gt;&lt;br&gt;&lt;/span&gt;" style="edgeLabel;html=1;align=center;verticalAlign=middle;resizable=0;points=[];fontSize=10;" vertex="1" connectable="0" parent="55">
                    <mxGeometry x="0.2745" relative="1" as="geometry">
                        <mxPoint x="-136" as="offset"/>
                    </mxGeometry>
                </mxCell>
                <mxCell id="57" style="html=1;" edge="1" parent="1">
                    <mxGeometry relative="1" as="geometry">
                        <mxPoint x="90" y="440" as="targetPoint"/>
                        <mxPoint x="410" y="440" as="sourcePoint"/>
                    </mxGeometry>
                </mxCell>
                <mxCell id="58" value="&lt;span style=&quot;background-color: rgb(42, 37, 47);&quot;&gt;&lt;span style=&quot;font-size: 8px;&quot;&gt;Responds with Brand from PK&lt;/span&gt;&lt;br&gt;&lt;/span&gt;" style="edgeLabel;html=1;align=center;verticalAlign=middle;resizable=0;points=[];fontSize=10;" vertex="1" connectable="0" parent="57">
                    <mxGeometry x="0.2745" relative="1" as="geometry">
                        <mxPoint x="-6" as="offset"/>
                    </mxGeometry>
                </mxCell>
            </root>
        </mxGraphModel>
    </diagram>
</mxfile>